<?xml version="1.0" encoding="utf-8"?>
<!-- Generator: Adobe Illustrator 23.0.3, SVG Export Plug-In . SVG Version: 6.00 Build 0)  -->
<svg version="1.1" id="Layer_1" xmlns="http://www.w3.org/2000/svg" xmlns:xlink="http://www.w3.org/1999/xlink" x="0px" y="0px"
	 viewBox="0 0 150 35.94804" style="enable-background:new 0 0 150 35.94804;" xml:space="preserve">
<style type="text/css">
	.st0{clip-path:url(#SVGID_2_);}
	.st1{clip-path:url(#SVGID_4_);}
	.st2{clip-path:url(#SVGID_6_);fill:url(#SVGID_7_);}
	.st3{opacity:0.25;clip-path:url(#SVGID_9_);}
	.st4{clip-path:url(#SVGID_11_);}
	.st5{clip-path:url(#SVGID_13_);fill:#7540AB;}
	.st6{clip-path:url(#SVGID_15_);fill:url(#SVGID_16_);}
	.st7{clip-path:url(#SVGID_18_);fill:#FFFFFF;}
	.st8{clip-path:url(#SVGID_20_);fill:#2D3237;}
</style>
<g>
	<g>
		<defs>
			<rect id="SVGID_1_" x="0" y="0.03011" width="150.01109" height="35.88782"/>
		</defs>
		<clipPath id="SVGID_2_">
			<use xlink:href="#SVGID_1_"  style="overflow:visible;"/>
		</clipPath>
		<g class="st0">
			<defs>
				<rect id="SVGID_3_" x="0" y="0.03011" width="150.01109" height="35.88782"/>
			</defs>
			<clipPath id="SVGID_4_">
				<use xlink:href="#SVGID_3_"  style="overflow:visible;"/>
			</clipPath>
			<g class="st1">
				<defs>
					<path id="SVGID_5_" d="M13.80719,0.66755L2.38776,7.26057C0.91564,8.1105,0.00883,9.68121,0.00883,11.381v13.18605
						c0,1.69983,0.90681,3.27049,2.37893,4.12042l11.41943,6.59302c0.73254,0.42294,1.54967,0.63543,2.3672,0.63744h0.02351
						c0.81752-0.00201,1.63462-0.2145,2.36716-0.63744l11.41943-6.59302c1.47208-0.84993,2.37897-2.4206,2.37897-4.12042V11.381
						c0-1.69979-0.90688-3.27049-2.37897-4.12043L18.56506,0.66755c-0.73602-0.42495-1.55746-0.63744-2.37893-0.63744
						C15.36469,0.03011,14.54325,0.2426,13.80719,0.66755"/>
				</defs>
				<clipPath id="SVGID_6_">
					<use xlink:href="#SVGID_5_"  style="overflow:visible;"/>
				</clipPath>
				
					<linearGradient id="SVGID_7_" gradientUnits="userSpaceOnUse" x1="0.96437" y1="36.64953" x2="1.00026" y2="36.64953" gradientTransform="matrix(-901.54901 0 0 901.54901 901.79468 -33023.375)">
					<stop  offset="0" style="stop-color:#1D9AD6"/>
					<stop  offset="0.23982" style="stop-color:#208BCB"/>
					<stop  offset="0.69876" style="stop-color:#2864AD"/>
					<stop  offset="1" style="stop-color:#2E4797"/>
				</linearGradient>
				<rect x="0.00883" y="0.03011" class="st2" width="32.35463" height="35.88782"/>
			</g>
			<g class="st1">
				<defs>
					<rect id="SVGID_8_" x="0.00072" y="0.03011" width="32.37082" height="35.88782"/>
				</defs>
				<clipPath id="SVGID_9_">
					<use xlink:href="#SVGID_8_"  style="overflow:visible;"/>
				</clipPath>
				<g class="st3">
					<g>
						<defs>
							<rect id="SVGID_10_" x="0.0088" y="0.03011" width="16.17732" height="26.91587"/>
						</defs>
						<clipPath id="SVGID_11_">
							<use xlink:href="#SVGID_10_"  style="overflow:visible;"/>
						</clipPath>
						<g class="st4">
							<defs>
								<rect id="SVGID_12_" x="0.00879" y="0.03011" width="16.17733" height="26.91587"/>
							</defs>
							<clipPath id="SVGID_13_">
								<use xlink:href="#SVGID_12_"  style="overflow:visible;"/>
							</clipPath>
							<path class="st5" d="M2.38775,7.26054C0.91563,8.11047,0.00878,9.68117,0.00878,11.381v13.18605
								c0,0.84989,0.22667,1.66756,0.63744,2.37893l15.53993-8.97195V0.03011c-0.82144,0-1.64294,0.21246-2.37897,0.63744
								L2.38775,7.26054z"/>
						</g>
					</g>
				</g>
			</g>
			<g class="st1">
				<defs>
					<path id="SVGID_14_" d="M0.6462,26.94597c0.41074,0.71137,1.00554,1.31655,1.74156,1.74146l11.41943,6.59306
						c0.73254,0.42294,1.54967,0.63543,2.3672,0.63744h0.02351c0.81752-0.00201,1.63465-0.2145,2.3672-0.63744l11.4194-6.59306
						c0.73606-0.42491,1.33079-1.03009,1.74149-1.74146l-15.53986-8.97195L0.6462,26.94597z"/>
				</defs>
				<clipPath id="SVGID_15_">
					<use xlink:href="#SVGID_14_"  style="overflow:visible;"/>
				</clipPath>
				
					<linearGradient id="SVGID_16_" gradientUnits="userSpaceOnUse" x1="-0.02005" y1="35.83696" x2="0.01584" y2="35.83696" gradientTransform="matrix(866.0257 0 0 -866.0257 18.00674 31062.67773)">
					<stop  offset="0" style="stop-color:#375CB3"/>
					<stop  offset="1" style="stop-color:#15BEDF"/>
				</linearGradient>
				<rect x="0.6462" y="17.97402" class="st6" width="31.07979" height="17.94391"/>
			</g>
			<g class="st1">
				<defs>
					<rect id="SVGID_17_" x="0.00072" y="0.03011" width="32.37082" height="35.88782"/>
				</defs>
				<clipPath id="SVGID_18_">
					<use xlink:href="#SVGID_17_"  style="overflow:visible;"/>
				</clipPath>
				<path class="st7" d="M16.02409,8.60328h1.50664c0.22301,0,0.40381,0.1808,0.40381,0.40381v16.08819
					c0,0.97357-0.78924,1.76285-1.76284,1.76285h-1.35904c-0.22301,0-0.40381-0.1808-0.40381-0.40381V10.21853
					C14.40885,9.32646,15.13202,8.60328,16.02409,8.60328"/>
				<path class="st7" d="M22.1645,13.03271h1.50664c0.22301,0,0.40381,0.1808,0.40381,0.40381v11.65877
					c0,0.97357-0.78925,1.76281-1.76285,1.76281h-1.35904c-0.22301,0-0.40381-0.18077-0.40381-0.40381V14.64796
					C20.54926,13.75589,21.27243,13.03271,22.1645,13.03271"/>
				<path class="st7" d="M9.91252,19.18681h1.50664c0.22301,0,0.40381,0.1808,0.40381,0.40381v5.53351
					c0,0.97356-0.78925,1.76285-1.76285,1.76285H8.70109c-0.22301,0-0.40381-0.1808-0.40381-0.40381v-5.68111
					C8.29728,19.90998,9.02046,19.18681,9.91252,19.18681"/>
			</g>
			<g class="st1">
				<defs>
					<rect id="SVGID_19_" x="0" y="0.03011" width="150.01109" height="35.88782"/>
				</defs>
				<clipPath id="SVGID_20_">
					<use xlink:href="#SVGID_19_"  style="overflow:visible;"/>
				</clipPath>
				<path class="st8" d="M54.93243,21.27446c0,2.33454-0.42068,3.56675-1.45902,4.50658
					c-1.0691,0.94094-2.82068,1.52419-5.34991,1.52419c-2.49729,0-3.98735-0.45369-5.02566-1.36137
					c-1.32842-1.16815-1.9116-3.14489-1.9116-6.16025v-1.32954c0-2.98317,0.58318-4.70234,1.84865-5.96552
					c1.1323-1.13567,2.69087-1.65482,4.89506-1.65482c1.23074,0,2.33342,0.32532,3.08054,0.81146h0.06324V5.8746
					c0-0.64979,0.19354-0.81146,0.90738-0.81146h2.04474c0.71188,0,0.90657,0.16167,0.90657,0.81146V21.27446z M51.07373,16.83227
					c0-1.2962-0.25904-1.84865-0.64674-2.20387c-0.4548-0.42297-1.10351-0.68083-2.17282-0.68083
					c-1.13456,0-1.84869,0.35637-2.33454,0.93872c-0.68082,0.81146-0.81149,1.84865-0.81149,3.66512v1.00507
					c0,2.07435,0.19498,3.07968,0.77934,3.79352c0.48502,0.5835,1.13338,0.8425,2.23603,0.8425
					c1.26519,0,1.88084-0.22681,2.33458-0.71295c0.45366-0.48707,0.61566-1.29738,0.61566-2.39978V16.83227z"/>
				<path class="st8" d="M68.09655,25.65151c-0.6168,1.07046-1.62183,1.65371-3.56699,1.65371h-1.19973
					c-1.68612,0-2.69115-0.29231-3.56664-1.03719c-0.9399-0.81146-1.39356-2.07554-1.39356-3.63189v-0.74517
					c0-1.751,0.42039-2.98318,1.36166-3.76248c1.005-0.84222,2.52923-1.19883,4.73425-1.19883h1.16779
					c0.58353,0,1.26292,0.03216,1.81538,0.06542v-0.87552c0-0.84361-0.16368-1.3295-0.55246-1.654
					c-0.45258-0.35633-1.06931-0.4537-2.23573-0.4537c-1.16927,0-2.69234,0.22688-3.98739,0.61652
					c-0.5203,0.16167-0.71384-0.06546-0.81149-0.51915l-0.29231-1.52419c-0.12808-0.5502-0.06406-0.81035,0.48614-0.97202
					c1.20002-0.38963,3.1779-0.7793,4.89621-0.7793c2.30124,0,3.56639,0.29231,4.66904,1.03834
					c1.16671,0.81031,1.68475,1.97817,1.68475,4.27941v10.24604c0,0.42183-0.22713,0.6154-0.67975,0.6154h-1.49086
					c-0.4884,0-0.68222-0.16139-0.7793-0.58321l-0.19386-0.77819H68.09655z M67.44871,20.07451
					c-0.55246-0.0319-1.23185-0.06406-1.88081-0.06406h-1.13427c-0.74628,0-1.36277,0.09736-1.68723,0.38852
					c-0.35751,0.29234-0.48588,0.84336-0.48588,1.58854v0.38964c0,0.7127,0.16167,1.16782,0.48588,1.45902
					c0.25897,0.22685,0.71406,0.38856,1.42823,0.38856h1.16643c1.49117,0,2.10766-0.67975,2.10766-2.17204V20.07451z"/>
				<path class="st8" d="M80.15773,11.12602h3.21001c0.5502,0,0.68,0.19469,0.68,0.84225v1.58961
					c0,0.55135-0.1298,0.81035-0.68,0.81035h-3.21001v7.06796c0,1.16783,0.06402,1.55631,0.38963,1.91383
					c0.29005,0.3245,0.64781,0.42068,1.52307,0.42068h1.58736c0.68313,0,0.77934,0.19498,0.77934,0.84362v1.58857
					c0,0.61648-0.06406,0.81002-0.77934,0.81002h-2.3345c-1.8797,0-2.98095-0.29091-3.79212-1.03719
					c-0.84138-0.77816-1.23135-2.04223-1.23135-3.89089v-7.7166H74.3541c-0.48615,0-0.64781-0.12948-0.64781-0.61648v-1.42571
					c0-0.51915,0.12865-0.61566,0.51804-0.68087l2.0755-0.35633V7.61762c0-0.64756,0.19383-0.81035,0.908-0.81035h2.04222
					c0.71267,0,0.90768,0.16279,0.90768,0.81035V11.12602z"/>
				<path class="st8" d="M96.37018,25.65151c-0.61763,1.07046-1.62153,1.65371-3.56783,1.65371h-1.19855
					c-1.6873,0-2.69115-0.29231-3.56671-1.03719c-0.93983-0.81146-1.39468-2.07554-1.39468-3.63189v-0.74517
					c0-1.751,0.42155-2.98318,1.36252-3.76248c1.00418-0.84222,2.52837-1.19883,4.73228-1.19883h1.16893
					c0.58124,0,1.26293,0.03216,1.81424,0.06542v-0.87552c0-0.84361-0.16138-1.3295-0.55131-1.654
					c-0.4537-0.35633-1.06935-0.4537-2.23689-0.4537c-1.167,0-2.69231,0.22688-3.98853,0.61652
					c-0.51804,0.16167-0.71159-0.06546-0.81035-0.51915l-0.29116-1.52419c-0.13034-0.5502-0.0652-0.81035,0.487-0.97202
					c1.19804-0.38963,3.17589-0.7793,4.89532-0.7793c2.30123,0,3.56642,0.29231,4.66793,1.03834
					c1.16757,0.81031,1.68673,1.97817,1.68673,4.27941v10.24604c0,0.42183-0.228,0.6154-0.68055,0.6154H97.4054
					c-0.48615,0-0.67997-0.16139-0.77618-0.58321l-0.1958-0.77819H96.37018z M95.72039,20.07451
					c-0.55131-0.0319-1.233-0.06406-1.87967-0.06406h-1.13455c-0.74715,0-1.36251,0.09736-1.68701,0.38852
					c-0.35522,0.29234-0.48586,0.84336-0.48586,1.58854v0.38964c0,0.7127,0.16139,1.16782,0.48586,1.45902
					c0.25904,0.22685,0.71387,0.38856,1.42599,0.38856h1.16759c1.49113,0,2.10765-0.67975,2.10765-2.17204V20.07451z"/>
				<path class="st8" d="M107.4918,12.03484h0.0632c0.90656-0.77815,2.13985-1.20113,3.88973-1.20113
					c2.01123,0,3.47054,0.487,4.47439,1.65486c1.07047,1.19887,1.49316,3.2092,1.49316,5.96552v1.36137
					c0,2.82067-0.55246,4.70123-1.71999,5.86909c-1.19801,1.19883-2.85255,1.6207-5.34905,1.6207
					c-2.07553,0-3.53423-0.19469-4.70119-0.94098c-1.26408-0.84225-2.01012-2.01011-2.01012-4.70123V5.87462
					c0-0.64982,0.19585-0.81146,0.90771-0.81146h2.04223c0.71303,0,0.90993,0.16164,0.90993,0.81146V12.03484z M113.48812,18.5825
					c0-1.87973-0.06406-2.94908-0.61537-3.72724c-0.45512-0.64982-1.26519-0.87667-2.39971-0.87667
					c-1.0705,0-1.81538,0.1958-2.26936,0.58432c-0.42183,0.35666-0.71188,0.8747-0.71188,2.172v4.37681
					c0,1.2976,0.12756,1.81675,0.45176,2.27044c0.45509,0.55135,1.1356,0.81031,2.43187,0.81031
					c1.19998,0,1.97929-0.29116,2.43211-0.87548c0.48589-0.61566,0.68058-1.45898,0.68058-3.7295V18.5825z"/>
				<path class="st8" d="M132.29414,12.74641c1.20027,1.3628,1.65288,3.40504,1.65288,5.83608v0.974
					c0,2.49621-0.45261,4.47439-1.65288,5.83604c-1.07022,1.19883-2.75609,1.91271-5.15608,1.91271
					c-2.39882,0-4.08443-0.71388-5.15489-1.91271c-1.20026-1.36166-1.65288-3.33983-1.65288-5.83604v-0.974
					c0-2.43104,0.45261-4.47327,1.65288-5.83608c1.07046-1.23185,2.72277-1.91271,5.15489-1.91271
					C129.57025,10.8337,131.22392,11.51456,132.29414,12.74641 M129.31122,23.35001
					c0.55106-0.71388,0.71269-1.97814,0.71269-3.95602v-0.68086c0-1.97821-0.16164-3.21035-0.71269-3.92308
					c-0.45514-0.58461-1.00533-0.87552-2.17316-0.87552c-1.16668,0-1.71798,0.2909-2.17197,0.87552
					c-0.55109,0.71273-0.71273,1.94487-0.71273,3.92308v0.68086c0,1.97789,0.16164,3.24214,0.71273,3.95602
					c0.45399,0.55131,1.00529,0.87469,2.17197,0.87469C128.30589,24.2247,128.85608,23.90132,129.31122,23.35001"/>
				<path class="st8" d="M149.90045,26.30021c0.19357,0.35637,0.16055,0.7127-0.55357,0.7127h-2.59239
					c-0.67975,0-0.77934-0.09733-1.03723-0.61537l-2.3345-5.22039c-0.22572-0.48585-0.32449-0.68083-0.48703-0.68083h-0.38766
					c-0.16365,0-0.2923,0.25904-0.48811,0.68083l-2.39774,5.22039c-0.22795,0.51804-0.35606,0.61537-1.0383,0.61537h-2.59242
					c-0.71274,0-0.74716-0.35633-0.55135-0.7127l3.79158-7.13342c0.13145-0.22681,0.13145-0.38849,0-0.61537l-3.5656-6.71156
					c-0.19383-0.35633-0.16275-0.71384,0.55109-0.71384h2.52863c0.68169,0,0.77931,0.0974,1.03835,0.61541l2.23576,4.83072
					c0.19582,0.38967,0.29231,0.61652,0.48811,0.61652h0.38766c0.1958,0,0.32425-0.22685,0.52031-0.61652l2.26907-4.83072
					c0.25903-0.51801,0.35664-0.61541,1.03604-0.61541h2.53062c0.71303,0,0.74519,0.35751,0.5502,0.71384l-3.69615,6.71156
					c-0.13068,0.22688-0.13068,0.38856,0,0.61537L149.90045,26.30021z"/>
			</g>
		</g>
	</g>
</g>
</svg>
